<?xml version="1.0" standalone="no"?>
<!DOCTYPE svg PUBLIC "-//W3C//DTD SVG 20010904//EN"
 "http://www.w3.org/TR/2001/REC-SVG-20010904/DTD/svg10.dtd">
<svg version="1.0" xmlns="http://www.w3.org/2000/svg"
 width="1242.000000pt" height="1242.000000pt" viewBox="0 0 1242.000000 1242.000000"
 preserveAspectRatio="xMidYMid meet">
<metadata>
Created by potrace 1.14, written by Peter Selinger 2001-2017
</metadata>
<g transform="translate(0.000000,1242.000000) scale(0.100000,-0.100000)"
fill="#000000" stroke="none">
<path d="M6055 11593 c-258 -55 -452 -204 -570 -441 -106 -212 -109 -477 -8
-690 58 -124 164 -250 271 -324 64 -44 197 -103 277 -123 294 -74 645 51 822
291 67 91 99 151 129 240 33 100 39 140 38 269 -1 223 -82 411 -244 565 -192
184 -469 266 -715 213z m288 -417 c74 -22 157 -91 213 -176 46 -69 61 -219 33
-323 -30 -112 -170 -243 -281 -262 -99 -18 -227 -3 -288 34 -40 24 -102 82
-136 125 -60 78 -83 203 -58 323 27 131 138 246 279 288 50 16 175 11 238 -9z"/>
<path d="M5940 8910 l0 -271 268 4 c147 3 267 5 267 6 5 30 -2 518 -7 522 -4
3 -125 6 -268 8 l-260 2 0 -271z"/>
<path d="M3246 9155 c-7 -19 -2 -512 5 -520 4 -3 60 -33 125 -66 66 -33 176
-90 246 -125 70 -36 135 -72 143 -81 13 -12 16 -38 15 -122 -1 -58 -1 -113 -1
-121 1 -13 39 -15 271 -17 l271 -3 -3 273 -4 272 -504 252 c-278 139 -517 256
-532 262 -20 7 -28 6 -32 -4z"/>
<path d="M8949 9064 c-118 -58 -356 -176 -529 -263 l-314 -158 -4 -271 -3
-272 265 3 c146 1 268 6 272 10 5 4 7 59 6 122 -1 84 2 118 12 128 8 7 92 53
187 102 96 48 210 107 254 129 l80 41 2 255 c2 140 -1 261 -5 268 -6 9 -64
-15 -223 -94z"/>
<path d="M2708 8588 c-7 -63 -6 -4738 1 -4769 l6 -26 130 62 c72 34 238 115
370 180 132 64 305 149 385 187 80 39 147 72 150 75 2 2 -2 8 -9 13 -13 8 -92
10 -453 13 -103 1 -168 6 -169 12 -1 6 -2 854 -3 1885 l-1 1876 160 1 c413 2
475 5 475 22 0 3 -66 38 -147 78 -82 39 -292 142 -468 228 -176 87 -340 167
-365 178 -25 12 -48 23 -51 25 -4 1 -9 -16 -11 -40z"/>
<path d="M9680 8616 c-14 -6 -187 -90 -385 -186 -198 -97 -420 -205 -493 -240
-72 -36 -131 -69 -129 -75 2 -6 75 -11 193 -13 104 -1 243 -3 308 -5 l120 -2
8 -30 c10 -40 5 -3721 -5 -3732 -5 -4 -124 -9 -265 -11 -319 -3 -355 -5 -359
-17 -2 -6 19 -20 45 -32 27 -13 215 -104 418 -204 602 -295 568 -280 575 -261
8 21 8 4734 0 4783 -6 34 -7 36 -31 25z"/>
<path d="M4860 6210 l0 -1350 1348 4 c741 2 1347 4 1347 5 5 154 -2 2678 -7
2682 -4 3 -611 6 -1348 8 l-1340 2 0 -1351z m2140 801 c8 -2 7 -1595 -1 -1601
-4 -3 -364 -5 -801 -5 l-793 1 -1 797 c-1 718 0 798 15 806 12 7 1557 9 1581
2z"/>
<path d="M321 6604 c-122 -25 -231 -116 -288 -240 -22 -49 -27 -73 -27 -139 0
-95 5 -122 39 -191 79 -161 256 -250 434 -219 175 30 312 185 328 371 16 188
-145 396 -327 420 -80 10 -98 10 -159 -2z m199 -238 c49 -32 73 -86 72 -158
-1 -73 -25 -123 -74 -156 -34 -22 -50 -25 -112 -25 -88 1 -126 18 -162 73 -19
28 -28 57 -31 102 -5 59 -3 66 28 112 47 69 85 87 172 81 52 -3 79 -10 107
-29z"/>
<path d="M11965 6609 c-157 -20 -287 -131 -335 -287 -64 -206 61 -435 269
-496 195 -57 393 34 482 222 51 107 48 237 -9 348 -49 97 -154 181 -252 203
-75 16 -93 18 -155 10z m154 -233 c39 -21 61 -49 75 -98 28 -94 -6 -198 -76
-234 -50 -26 -166 -23 -212 5 -68 42 -100 133 -77 219 14 52 77 119 118 125
45 7 143 -2 172 -17z"/>
<path d="M1620 6210 l0 -270 260 2 c143 2 261 5 261 8 1 3 2 121 3 262 1 166
-2 259 -9 261 -5 2 -124 5 -262 6 l-253 2 0 -271z"/>
<path d="M10279 6473 c-15 -4 -17 -31 -16 -264 1 -142 4 -260 7 -260 3 -1 121
-2 262 -3 167 -1 259 2 261 9 3 9 1 501 -2 516 -1 7 -487 9 -512 2z"/>
<path d="M3785 4307 c-2 -7 -6 -65 -7 -131 l-3 -118 -120 -63 c-66 -35 -185
-96 -265 -137 l-145 -73 -2 -256 c0 -141 2 -261 6 -268 5 -8 171 70 537 252
l529 264 3 272 3 272 -266 -1 c-196 -1 -267 -4 -270 -13z"/>
<path d="M8102 4055 c2 -147 5 -271 8 -275 9 -15 1052 -530 1061 -524 5 3 8
120 6 266 l-2 261 -30 17 c-16 9 -133 69 -260 134 -126 65 -233 123 -237 129
-4 7 -7 57 -7 112 0 55 0 109 0 120 -1 20 -8 20 -271 23 l-271 3 3 -266z"/>
<path d="M5942 3515 c2 -227 5 -265 18 -266 37 -3 496 -5 505 -2 7 2 12 97 13
268 l3 265 -271 0 -271 0 3 -265z"/>
<path d="M6056 2413 c-155 -32 -292 -105 -407 -215 -153 -146 -239 -344 -245
-558 -5 -192 57 -378 177 -525 114 -141 256 -231 439 -280 158 -42 342 -26
505 42 217 92 391 286 459 513 26 86 31 127 30 245 -1 238 -98 445 -277 595
-71 60 -208 138 -282 160 -131 39 -282 48 -399 23z m274 -414 c98 -31 182
-104 232 -202 30 -59 31 -68 32 -177 0 -141 -18 -186 -108 -275 -88 -88 -156
-117 -271 -118 -102 0 -148 12 -221 58 -63 40 -118 104 -151 175 -22 48 -26
69 -26 160 0 96 2 110 29 164 57 117 165 204 277 225 52 10 160 5 207 -10z"/>
</g>
</svg>
